<svg width="768" height="671" viewBox="0 0 768 671" fill="none" xmlns="http://www.w3.org/2000/svg">
<g clip-path="url(#clip0_101_4)">
<path opacity="0.1" d="M131.256 86.6274C127.144 91.6164 125.56 98.6201 123.784 105.232C109.512 158.392 74.36 201.174 34.32 231.699C17.368 244.635 -3.27996 261.993 0.432041 285.179C2.42404 297.635 11.192 306.766 17.72 316.951C31.384 338.194 35.808 367.081 29.296 392.505C21.888 421.44 1.20004 448.471 7.60804 477.702C11.56 495.739 24.968 508.531 37.864 519.548C57.976 536.727 78.7307 552.816 100.128 567.815C114.472 577.873 129.728 587.659 146.44 588.93C161.16 590.057 175.576 584.469 189.544 578.944C201.752 574.147 214.272 569.102 224.128 559.436C230.528 553.128 235.696 544.981 242.84 539.824C259.64 527.695 281.192 535.386 300.44 540.551C346.248 552.705 394.882 548.256 437.72 527.991C504.032 496.81 554.576 431.45 619.416 396.359C647.304 381.264 677.64 371.902 703.464 352.466C718.014 341.393 730.517 327.864 740.408 312.49C759.96 282.388 770.496 244.012 767.464 206.451C764.432 168.889 747.328 132.679 720.504 111.476C691.784 88.7781 655.512 84.5407 622.824 70.9089C589.072 56.8295 559.056 32.6282 525.632 17.5334C498.581 5.34912 469.144 -0.627516 439.481 0.0420934C409.818 0.711702 380.681 8.01056 354.208 21.4031C317.832 39.7519 280.968 82.6538 240.448 85.8758C211.608 88.1864 153.8 59.3 131.256 86.6274Z" fill="#00796B"/>
<path opacity="0.1" d="M495.512 671C577.418 671 643.816 655.88 643.816 637.229C643.816 618.577 577.418 603.457 495.512 603.457C413.606 603.457 347.208 618.577 347.208 637.229C347.208 655.88 413.606 671 495.512 671Z" fill="#00796B"/>
<path d="M625.6 548.818C625.6 548.818 638.736 574.595 628 588.698C617.264 602.801 628.976 641.226 628.976 641.226" stroke="#00796B" stroke-miterlimit="10"/>
<path d="M629.52 540.799C629.52 545.772 625.872 549.794 625.872 549.794C625.872 549.794 622.224 545.796 622.224 540.799C622.224 535.802 625.872 531.805 625.872 531.805C625.872 531.805 629.52 535.826 629.52 540.799Z" fill="#00796B"/>
<path d="M632.44 548.818C632.44 548.818 619.304 574.595 630.04 588.698C640.776 602.801 629.064 641.226 629.064 641.226" stroke="#00796B" stroke-miterlimit="10"/>
<path d="M628.544 540.799C628.544 545.772 632.192 549.794 632.192 549.794C632.192 549.794 635.84 545.796 635.84 540.799C635.84 535.802 632.192 531.805 632.192 531.805C632.192 531.805 628.544 535.826 628.544 540.799Z" fill="#00796B"/>
<path opacity="0.1" d="M628.544 540.799C628.544 545.772 632.192 549.794 632.192 549.794C632.192 549.794 635.84 545.796 635.84 540.799C635.84 535.802 632.192 531.805 632.192 531.805C632.192 531.805 628.544 535.826 628.544 540.799Z" fill="black"/>
<path d="M637.792 548.818C637.792 548.818 650.928 574.595 640.192 588.698C629.456 602.801 641.168 641.226 641.168 641.226" stroke="#00796B" stroke-miterlimit="10"/>
<path d="M641.688 540.799C641.688 545.772 638.04 549.794 638.04 549.794C638.04 549.794 634.4 545.772 634.4 540.799C634.4 535.826 638.048 531.805 638.048 531.805C638.048 531.805 641.688 535.826 641.688 540.799Z" fill="#00796B"/>
<path d="M639.64 561.451C636.192 565.032 630.768 565.408 630.768 565.408C630.768 565.408 630.936 559.98 634.376 556.398C637.816 552.816 643.248 552.44 643.248 552.44C643.248 552.44 643.088 557.869 639.64 561.451Z" fill="#00796B"/>
<path d="M640 579.232C636.552 582.814 631.128 583.189 631.128 583.189C631.128 583.189 631.296 577.761 634.736 574.179C638.176 570.597 643.608 570.221 643.608 570.221C643.608 570.221 643.432 575.65 640 579.232Z" fill="#00796B"/>
<path d="M621.288 589.018C624.544 592.768 624.432 598.204 624.432 598.204C624.432 598.204 619.032 597.557 615.776 593.799C612.52 590.041 612.632 584.613 612.632 584.613C612.632 584.613 618.024 585.268 621.288 589.018Z" fill="#00796B"/>
<path d="M624.312 551.097C628.456 553.839 629.8 559.092 629.8 559.092C629.8 559.092 624.424 559.892 620.28 557.165C616.136 554.439 614.792 549.17 614.792 549.17C614.792 549.17 620.168 548.347 624.312 551.097Z" fill="#00796B"/>
<path opacity="0.1" d="M624.312 551.097C628.456 553.839 629.8 559.092 629.8 559.092C629.8 559.092 624.424 559.892 620.28 557.165C616.136 554.439 614.792 549.17 614.792 549.17C614.792 549.17 620.168 548.347 624.312 551.097Z" fill="black"/>
<path d="M644.608 548.818C644.608 548.818 631.472 574.595 642.208 588.698C652.944 602.801 641.232 641.226 641.232 641.226" stroke="#00796B" stroke-miterlimit="10"/>
<path d="M640.712 540.799C640.712 545.772 644.36 549.794 644.36 549.794C644.36 549.794 648.008 545.796 648.008 540.799C648.008 535.802 644.36 531.805 644.36 531.805C644.36 531.805 640.712 535.826 640.712 540.799Z" fill="#00796B"/>
<path opacity="0.1" d="M640.712 540.799C640.712 545.772 644.36 549.794 644.36 549.794C644.36 549.794 648.008 545.796 648.008 540.799C648.008 535.802 644.36 531.805 644.36 531.805C644.36 531.805 640.712 535.826 640.712 540.799Z" fill="black"/>
<path d="M641.76 561.834C638.272 565.376 638.04 570.805 638.04 570.805C638.04 570.805 643.472 570.493 646.96 566.959C650.448 563.425 650.68 557.989 650.68 557.989C650.68 557.989 645.256 558.293 641.76 561.834Z" fill="#00796B"/>
<path opacity="0.1" d="M641.76 561.834C638.272 565.376 638.04 570.805 638.04 570.805C638.04 570.805 643.472 570.493 646.96 566.959C650.448 563.425 650.68 557.989 650.68 557.989C650.68 557.989 645.256 558.293 641.76 561.834Z" fill="black"/>
<path d="M648.608 586.459C645.12 590.001 644.888 595.43 644.888 595.43C644.888 595.43 650.32 595.118 653.808 591.584C657.296 588.05 657.528 582.614 657.528 582.614C657.528 582.614 652.096 582.918 648.608 586.459Z" fill="#00796B"/>
<path d="M638.536 581.047C638.536 581.047 646.448 568.59 657.544 568.318" stroke="#00796B" stroke-miterlimit="10"/>
<path d="M632.376 573.523C632.376 573.523 624.464 561.067 613.368 560.795" stroke="#00796B" stroke-miterlimit="10"/>
<path d="M631.352 591.304C631.352 591.304 639.264 578.84 650.4 578.552" stroke="#00796B" stroke-miterlimit="10"/>
<path d="M657.184 570.277C658.319 570.277 659.24 569.357 659.24 568.222C659.24 567.088 658.319 566.168 657.184 566.168C656.048 566.168 655.128 567.088 655.128 568.222C655.128 569.357 656.048 570.277 657.184 570.277Z" fill="#00796B"/>
<path d="M613.56 562.922C614.696 562.922 615.616 562.002 615.616 560.867C615.616 559.732 614.696 558.812 613.56 558.812C612.425 558.812 611.504 559.732 611.504 560.867C611.504 562.002 612.425 562.922 613.56 562.922Z" fill="#00796B"/>
<path d="M637.168 595.406C637.168 595.406 629.256 582.95 618.16 582.678" stroke="#00796B" stroke-miterlimit="10"/>
<path d="M618.352 584.804C619.488 584.804 620.408 583.884 620.408 582.75C620.408 581.615 619.488 580.695 618.352 580.695C617.217 580.695 616.296 581.615 616.296 582.75C616.296 583.884 617.217 584.804 618.352 584.804Z" fill="#00796B"/>
<path d="M650.512 580.703C651.647 580.703 652.568 579.783 652.568 578.648C652.568 577.513 651.647 576.593 650.512 576.593C649.377 576.593 648.456 577.513 648.456 578.648C648.456 579.783 649.377 580.703 650.512 580.703Z" fill="#00796B"/>
<path d="M680.888 626.267C680.888 626.267 661.824 622.453 656.744 617.377C651.664 612.3 628.8 603.409 626.248 609.733C623.696 616.057 591.936 637.716 613.544 641.506C635.152 645.296 664.376 646.583 670.728 644.048C677.08 641.514 680.888 626.267 680.888 626.267Z" fill="#A8A8A8"/>
<path opacity="0.2" d="M613.544 639.147C635.144 642.961 664.376 644.224 670.728 641.69C675.528 639.755 678.928 630.497 680.256 626.139L680.888 626.275C680.888 626.275 677.072 641.514 670.72 644.056C664.368 646.599 635.136 645.328 613.536 641.514C607.304 640.411 605.536 637.828 606.192 634.566C606.728 636.685 608.904 638.324 613.544 639.147Z" fill="black"/>
<path d="M677.104 239.694C677.104 239.694 667.936 220.322 654.256 213.91C648.784 210.904 642.528 209.912 635.8 213.062C632.56 214.483 629.787 216.788 627.8 219.714C622.304 222.497 615 225.207 607.288 225.207C591.52 225.207 561.48 244.228 561.48 244.228C561.48 244.228 544.96 245.747 543.456 251.079C542.912 252.982 540.848 253.334 538.4 252.99C539.048 249.608 539.704 247.274 539.704 247.274L545.712 194.01C545.712 194.01 549.464 181.833 538.2 156.721C531.552 141.906 518.896 140.067 509.64 141.058V140.746L508.184 138.092C509.163 137.643 510.072 137.053 510.88 136.341C511.49 135.669 512.261 135.163 513.12 134.87C513.899 134.775 514.69 134.882 515.416 135.182L522.2 137.325C523.341 137.763 524.553 137.988 525.776 137.988C528.656 137.812 530.768 135.27 532.52 132.943C533.84 131.184 535.232 129.042 534.56 126.939C534.245 126.201 533.89 125.48 533.496 124.78C532.6 122.741 533.128 120.335 534.12 118.344C535.112 116.353 536.52 114.602 537.512 112.612C538.768 109.969 539.251 107.026 538.904 104.122C538.557 101.217 537.395 98.47 535.552 96.1975C534.192 94.5985 532.408 93.0954 532.056 90.9927C531.768 89.2737 532.536 87.5708 533 85.8918C533.627 83.5479 533.69 81.0892 533.185 78.7162C532.681 76.3431 531.622 74.1227 530.096 72.2361C528.183 70.019 525.719 68.3451 522.952 67.383C523.703 65.6178 523.901 63.6665 523.52 61.7865C522.168 55.4783 520.192 47.8589 515.368 43.3017C514.908 42.7987 514.417 42.326 513.896 41.8866C512.631 40.7538 511.119 39.9324 509.48 39.488C506.28 38.7445 502.944 40.1756 499.632 40.5114C495.072 40.9751 490.584 39.3441 486.032 38.6165C481.48 37.889 476.232 38.3527 473.32 41.9345C471.048 44.7328 470.784 48.7704 468.616 51.6566C466.352 54.6788 462.464 55.878 458.776 56.5177C455.088 57.1573 451.224 57.4291 447.944 59.252C445.814 60.4869 444.067 62.2872 442.898 64.4534C441.729 66.6196 441.183 69.0671 441.32 71.5245C441.44 73.2595 441.896 74.9704 441.808 76.7054C441.624 80.3512 439.128 83.3893 436.76 86.1396C435.112 88.0505 433.368 90.2571 433.56 92.7916C433.744 95.7418 436.384 97.8445 437.704 100.483C439.744 104.568 438.424 109.533 436.512 113.683C434.6 117.832 432.088 121.878 431.712 126.475C431.64 128.798 431.857 131.121 432.36 133.391C432.728 135.446 433.336 137.788 434.872 138.988C435.335 139.615 435.976 140.088 436.712 140.347C437.309 140.486 437.897 140.662 438.472 140.874C438.655 141.386 438.724 141.932 438.672 142.473C438.672 142.865 438.672 143.273 438.672 143.657L437.528 143.761C424.008 145.28 408.24 152.891 408.992 162.022C409.744 171.152 411.992 193.203 411.992 193.203C411.992 193.203 418.752 233.53 429.264 248.753C436.239 258.856 441.599 269.983 445.152 281.733L451.416 302.424L451.776 303.607C448.576 307.029 445.928 310.891 445.032 314.961C442.032 328.656 412.744 335.508 412.744 335.508C412.744 335.508 382.344 350.251 380.44 370.934L379.056 375.836L372.232 400.261C372.232 400.261 354.96 415.451 360.232 426.892C365.504 438.334 382.008 441.348 381.256 452.765C381.152 454.364 381.824 455.107 383.064 455.163C386.112 460.024 410.472 440.388 418.056 434.096C415.88 442.291 410.432 467.02 422.312 471.809C424.569 473.118 427.196 473.647 429.784 473.312C429.824 475.231 429.912 477.246 430.072 479.381L418.808 529.606C418.808 529.606 413.376 569.342 407.384 583.062H407.048C406.596 584.097 406.003 585.065 405.288 585.94C404.012 587.63 403.028 589.522 402.376 591.536H402.656C402.56 591.776 402.464 592.016 402.376 592.264C398.296 603.177 394.832 624.676 393.328 634.95L393.112 636.421L391.768 636.117C391.768 636.117 391.504 640.986 384.128 642.737V642.921C381 643.425 377.872 645.168 378.944 650.333L372.984 650.572V654.378L408.28 653.579L430.808 623.141L429.304 648.254H434.56L438.312 621.622C438.312 621.622 454.832 607.926 439.064 594.231H437.712C437.465 593.696 437.165 593.187 436.816 592.712C436.016 591.568 435.608 589.737 435.568 587.515C435.568 586.923 435.568 586.316 435.64 585.676C436.328 575.834 441.328 561.507 441.328 561.507L460.104 522.698C460.104 522.698 471.368 509.762 467.616 475.527C467.616 475.527 487.888 439.005 504.416 426.828C505.352 426.124 506.245 425.363 507.088 424.55L509.672 449.663L511.032 449.039L511.176 450.422C511.176 450.422 530.552 441.42 547.88 434.848L550.976 455.747C550.976 455.747 558.488 477.814 556.984 492.269C555.48 506.724 556.984 547.059 556.984 547.059C556.984 547.059 561.488 583.581 556.984 592.72L556.936 592.824H556.6C555.925 594.574 555.372 596.369 554.944 598.196H555.136L554.944 598.948C551.92 610.941 549.232 633.327 548.304 641.426L548.216 642.226H546.464C546.464 642.226 541.96 655.921 546.464 659.727C550.968 663.533 574.248 658.927 574.248 658.927C574.248 658.927 583.68 647.886 576.128 642.457V611.788C576.128 611.788 575.776 607.063 575.632 600.859C575.584 598.98 575.56 596.965 575.568 594.902C575.568 586.531 576.192 577.441 578.384 573.739C582.888 566.128 591.904 528.079 591.904 520.476C591.904 512.872 589.6 477.102 589.6 477.102C589.6 477.102 582.84 445.921 591.856 427.644L598.256 397.742C603.408 388.716 607.216 381.224 607.216 381.224C607.216 381.224 645.512 329.48 663.536 327.201C681.56 324.922 677.104 239.694 677.104 239.694ZM411.104 640.499L409.896 640.227C410.08 639.787 410.28 639.323 410.496 638.836C413.696 631.576 420.608 619.224 432.096 613.099L411.104 640.499ZM470.6 289.928C470.6 289.928 469.872 290.296 468.68 290.967L467.696 288.704L467.112 287.201L466.96 286.802L466.544 285.706L466.4 285.323L465.912 284.011L465.752 283.572L465.424 282.676L465.24 282.172L464.896 281.205L464.696 280.637L464.4 279.774L464.232 279.278L464 278.559L463.856 278.119L463.544 277.12L463.424 276.72L463.24 276.072L463.128 275.68C463.053 275.414 462.984 275.147 462.92 274.881L462.848 274.601C462.789 274.356 462.733 274.119 462.68 273.889L462.616 273.602C462.573 273.404 462.536 273.213 462.504 273.026V272.818C462.461 272.578 462.429 272.352 462.408 272.139C462.408 272.083 462.408 272.035 462.408 271.987C462.408 271.939 462.408 271.667 462.408 271.515C462.408 271.363 462.408 271.403 462.408 271.355C462.399 271.19 462.399 271.024 462.408 270.859C462.419 270.652 462.419 270.443 462.408 270.236C462.408 270.236 462.408 270.172 462.408 270.14C462.408 269.916 462.408 269.668 462.368 269.404V269.308C461.884 265.998 461.13 262.733 460.112 259.546L460.84 260.234C460.84 260.234 473.6 274.697 470.6 289.928Z" fill="url(#paint0_linear_101_4)"/>
<path d="M501.144 90.1532H456.088V151.692H501.144V90.1532Z" fill="#FFCD50"/>
<path opacity="0.05" d="M501.144 90.1532H456.088V151.692H501.144V90.1532Z" fill="black"/>
<path d="M530.24 76.9932C531.764 78.8445 532.823 81.0333 533.328 83.3769C533.833 85.7204 533.77 88.1508 533.144 90.465C532.68 92.128 531.912 93.799 532.2 95.4939C532.552 97.5647 534.336 99.0278 535.696 100.627C537.537 102.856 538.7 105.566 539.048 108.435C539.395 111.305 538.912 114.213 537.656 116.817C536.672 118.784 535.256 120.511 534.264 122.47C533.272 124.428 532.736 126.811 533.64 128.818C534.033 129.507 534.388 130.217 534.704 130.944C535.368 133.015 533.976 135.134 532.664 136.869C530.92 139.163 528.808 141.666 525.92 141.842C524.698 141.841 523.487 141.619 522.344 141.186L515.56 139.067C514.833 138.773 514.043 138.668 513.264 138.764C512.407 139.052 511.636 139.553 511.024 140.219C508.696 142.242 505.192 143.577 502.56 141.962C499.928 140.347 499.544 136.629 499.576 133.487C499.616 129.905 499.88 126.035 502.184 123.285C503.648 121.534 505.792 120.463 507.264 118.712C510.424 114.954 509.664 109.429 509.552 104.52C509.488 103.409 509.615 102.295 509.928 101.226C510.306 100.275 510.812 99.3792 511.432 98.5641C514.184 94.5665 516.864 90.441 518.32 85.8198C519.848 81.0227 519.424 76.6174 517.872 71.9083C522.08 70.685 527.6 73.8431 530.24 76.9932Z" fill="#FFCD50"/>
<path d="M507.528 141.554L499.384 153.763L498.52 155.058L498.032 156.921L490.264 186.575V231.603L471.488 255.589L451.968 221.817C451.968 221.817 434.696 197.032 456.472 159.527C458.9 155.361 461.106 151.07 463.08 146.671C463.496 145.751 463.88 144.84 464.256 143.936C469.056 132.471 470.888 122.949 471.376 115.706C472.088 105.216 469.984 99.4915 469.984 99.4915L509.784 109.246C508.263 113.331 506.952 117.491 505.856 121.71C501.128 140.491 507.528 141.554 507.528 141.554Z" fill="#FFD5D8"/>
<path d="M498.512 147.558C498.512 147.558 527.048 135.566 538.312 160.35C549.576 185.135 545.824 197.128 545.824 197.128L539.816 249.656C539.816 249.656 535.312 265.415 538.312 274.441C541.312 283.468 546.568 321.716 546.568 321.716L518.032 325.466C518.032 325.466 516.528 290.192 512.024 280.437L513.4 222.649C513.482 219.187 512.836 215.747 511.504 212.551C502.923 191.973 498.505 169.9 498.504 147.606L498.512 147.558Z" fill="#FFD5D8"/>
<path d="M459.848 153.403C453.486 148.683 445.552 146.59 437.688 147.558C424.168 149.061 408.4 156.561 409.152 165.571C409.904 174.582 412.152 196.337 412.152 196.337C412.152 196.337 418.912 236.112 429.424 251.119L439.936 266.126L460.208 332.166L485.008 329.168C485.008 329.168 461.728 280.398 462.48 272.882C463.232 265.367 446.712 223.352 446.712 223.352L459.848 153.403Z" fill="#FFD5D8"/>
<path d="M485 329.168L460.2 332.166L451.568 304.047L445.304 283.644C441.742 272.039 436.381 261.064 429.416 251.119C418.904 236.112 412.144 196.337 412.144 196.337C412.144 196.337 409.888 174.574 409.144 165.571C408.4 156.569 424.16 149.061 437.68 147.558C441.721 147.099 445.813 147.414 449.736 148.486C453.394 149.44 456.826 151.111 459.832 153.403L446.68 223.352C446.68 223.352 456.944 249.472 460.928 264.207C461.992 268.165 462.608 271.291 462.456 272.882C462.192 275.512 464.856 283.172 468.456 292.07C475.144 308.532 485 329.168 485 329.168Z" fill="#FFD5D8"/>
<path d="M382.872 369.695L373.864 401.212C373.864 401.212 356.592 416.251 361.848 427.444C367.104 438.637 383.624 441.699 382.872 452.957C382.12 464.214 420.416 431.945 420.416 431.945C420.416 431.945 406.896 474.719 430.176 472.473C453.456 470.226 472.976 423.702 472.976 423.702L507.52 413.948L511.272 449.966C511.272 449.966 565.336 425.181 573.6 428.204C581.864 431.226 607.392 381.672 607.392 381.672C607.392 381.672 645.688 330.639 663.712 328.392C681.736 326.146 677.232 242.093 677.232 242.093C677.232 242.093 659.96 206.075 637.432 216.58C614.904 227.086 635.2 255.629 635.2 255.629L566.864 311.163L495.528 325.418L382.872 369.695Z" fill="white"/>
<path opacity="0.02" d="M662.208 327.665C644.184 329.919 605.888 380.944 605.888 380.944C605.888 380.944 580.36 430.482 572.104 427.444C563.848 424.406 509.776 449.207 509.776 449.207L506.024 413.189L471.48 422.943C471.48 422.943 451.96 469.475 428.68 471.713C405.4 473.952 418.92 431.186 418.92 431.186C418.92 431.186 380.624 463.502 381.368 452.229C382.112 440.956 365.6 437.982 360.344 426.725C355.088 415.467 372.344 400.461 372.344 400.461L379.208 376.475L381.352 368.968L493.984 324.691L565.32 310.435L633.656 254.901C633.656 254.901 619.592 235.121 627.904 222.433C629.901 219.54 632.674 217.268 635.904 215.877C658.432 205.371 675.704 241.389 675.704 241.389C675.704 241.389 680.232 325.418 662.208 327.665Z" fill="black"/>
<path d="M560.088 345.678C560.088 345.678 555.92 353.041 549.744 363.379C548.056 366.193 546.216 369.24 544.28 372.406L542.872 374.676C530.272 395.096 513.824 419.953 504.52 426.709C488 438.701 467.72 474.735 467.72 474.735C471.472 508.507 460.208 521.267 460.208 521.267L441.432 559.54C441.432 559.54 436.44 573.667 435.744 583.373C435.504 586.715 435.744 589.522 436.92 591.057C437.569 591.934 438.057 592.919 438.36 593.967C440.208 600.107 436.92 608.318 436.92 608.318C422.576 613.115 414.248 627.634 410.6 635.742C409.761 637.566 409.021 639.434 408.384 641.338L392.616 637.588C392.616 637.588 392.904 635.414 393.416 631.928C394.92 621.798 398.384 600.587 402.464 589.825C403.117 587.833 404.101 585.966 405.376 584.301C406.09 583.44 406.683 582.485 407.136 581.462C413.264 568.67 418.896 528.015 418.896 528.015L430.16 478.485C427.904 448.463 438.416 440.964 438.416 440.964L464.408 386.597L470.712 373.421L547.312 349.619L549.328 348.996L560.088 345.678Z" fill="#FFD5D8"/>
<path d="M389.6 639.859C389.6 639.859 376.8 637.604 379.088 647.366H389.6V639.859Z" fill="#FFD5D8"/>
<path opacity="0.05" d="M410.616 635.757C409.777 637.582 409.037 639.45 408.4 641.354L392.632 637.604C392.632 637.604 392.92 635.43 393.432 631.944L410.616 635.757Z" fill="black"/>
<path d="M412.16 637.604L391.888 633.103C391.888 633.103 391.624 637.9 384.248 639.635L385.136 648.861L406.16 648.11L412.16 637.604Z" fill="#4F4A55"/>
<path d="M373.112 647.358V651.108L408.408 650.357L430.936 620.335L429.432 645.12H434.688L438.44 618.856C438.44 618.856 454.96 605.344 439.192 591.84H433.936L433.184 609.102L409.904 639.123L391.88 646.631L373.112 647.358Z" fill="#4F4A55"/>
<path opacity="0.05" d="M438.4 593.239L402.504 589.098C403.157 587.106 404.141 585.238 405.416 583.573C406.13 582.712 406.723 581.757 407.176 580.735L435.776 582.638C435.536 585.98 435.776 588.786 436.952 590.321C437.605 591.2 438.095 592.188 438.4 593.239Z" fill="black"/>
<path d="M438.4 593.991L402.504 589.849C403.157 587.857 404.141 585.99 405.416 584.325C406.13 583.464 406.723 582.509 407.176 581.486L435.776 583.389C435.536 586.731 435.776 589.537 436.952 591.073C437.605 591.951 438.095 592.94 438.4 593.991Z" fill="#4F4A55"/>
<path opacity="0.1" d="M560.088 345.678C560.088 345.678 555.92 353.041 549.744 363.379C548.056 366.193 546.216 369.24 544.28 372.406L542.872 374.676L542.776 372.398L542.544 366.977L542.072 356.167C542.072 356.167 544.048 353.633 547.336 349.627L549.352 349.004L560.088 345.678Z" fill="black"/>
<path d="M610.096 322.028C610.096 342.816 604.392 368.192 604.392 368.192L591.592 426.725C582.584 444.738 589.336 475.495 589.336 475.495C589.336 475.495 591.592 510.769 591.592 518.269C591.592 525.768 582.584 563.297 578.072 570.797C575.88 574.443 575.288 583.413 575.256 591.664C575.256 593.695 575.256 595.662 575.32 597.541C575.464 603.657 575.816 608.318 575.816 608.318V643.593L548.032 641.338C548.032 641.338 548.152 640.227 548.368 638.34C549.288 630.345 551.976 608.318 555.008 596.453C555.436 594.65 555.989 592.879 556.664 591.153C556.792 590.849 556.92 590.569 557.048 590.313C561.552 581.311 557.048 545.284 557.048 545.284C557.048 545.284 555.544 505.509 557.048 491.253C558.552 476.998 551.04 455.235 551.04 455.235L546.536 425.213L544.24 372.398L544.008 366.977L543.536 356.167C543.536 356.167 545.72 353.369 549.312 348.972C553.056 344.399 558.336 338.122 564.2 331.566C570.232 324.842 576.872 317.839 583.144 312.122C594.44 301.808 604.488 295.668 607.36 302.856C609.36 307.821 610.088 314.633 610.096 322.028Z" fill="#FFD5D8"/>
<path opacity="0.1" d="M575.856 638.356V643.609L548.072 641.354C548.072 641.354 548.192 640.243 548.408 638.356H575.856Z" fill="black"/>
<path d="M558.584 639.107H546.584C546.584 639.107 542.08 652.619 546.584 656.369C551.088 660.119 574.368 655.617 574.368 655.617C574.368 655.617 584.128 644.36 575.872 639.107H558.584Z" fill="#4F4A55"/>
<path opacity="0.1" d="M509.776 109.286C508.255 113.371 506.944 117.531 505.848 121.75C500.13 124.162 493.839 124.879 487.725 123.814C481.61 122.75 475.932 119.949 471.368 115.746C472.08 105.256 469.976 99.5315 469.976 99.5315L509.776 109.286Z" fill="black"/>
<path d="M493.256 122.797C511.088 122.797 525.544 108.35 525.544 90.529C525.544 72.7076 511.088 58.2606 493.256 58.2606C475.424 58.2606 460.968 72.7076 460.968 90.529C460.968 108.35 475.424 122.797 493.256 122.797Z" fill="#FFD5D8"/>
<path d="M509.6 144.888C505.975 145.285 502.412 146.125 498.992 147.39L506.056 137.796L509.6 144.888Z" fill="#F0F0F2"/>
<path opacity="0.1" d="M607.768 303.655C607.433 302.598 606.72 301.7 605.766 301.134C604.811 300.568 603.681 300.372 602.592 300.585C603.434 300.691 604.228 301.037 604.879 301.581C605.531 302.125 606.011 302.845 606.264 303.655C608.232 308.572 608.96 315.384 608.968 322.78C608.968 343.567 603.264 368.944 603.264 368.944L590.464 427.476C581.456 445.489 588.208 476.246 588.208 476.246C588.208 476.246 590.464 511.521 590.464 519.02C590.464 526.52 581.456 564.049 576.944 571.548C574.752 575.194 574.16 584.165 574.128 592.416C574.128 594.447 574.128 596.413 574.192 598.292C574.336 604.408 574.688 609.07 574.688 609.07V644.248L576.192 644.368V609.086C576.192 609.086 575.84 604.424 575.696 598.308C575.648 596.453 575.624 594.462 575.632 592.432C575.632 584.181 576.256 575.21 578.448 571.564C582.952 564.057 591.968 526.536 591.968 519.036C591.968 511.537 589.712 476.262 589.712 476.262C589.712 476.262 582.952 445.497 591.968 427.492L604.768 368.96C604.768 368.96 610.496 343.607 610.472 322.796C610.464 315.384 609.736 308.572 607.768 303.655Z" fill="black"/>
<path opacity="0.05" d="M582.616 342.696C573.839 346 565.715 350.825 558.616 356.951C555.78 359.251 552.827 361.402 549.768 363.395C548.096 364.506 546.184 365.722 544.072 367.001C528.531 376.379 511.664 383.363 494.04 387.716C481.344 390.834 471.704 389.659 464.44 386.637L470.744 373.461L549.36 349.036C553.104 344.463 558.384 338.186 564.248 331.63C570.28 324.906 576.92 317.903 583.192 312.186L590.136 308.924C590.136 308.924 596.88 337.427 582.616 342.696Z" fill="black"/>
<path opacity="0.05" d="M610.096 322.028C595.96 321.932 576.984 327.345 564.232 331.622C581.128 312.778 602.92 291.735 607.432 302.912C609.36 307.821 610.088 314.633 610.096 322.028Z" fill="black"/>
<path d="M444.448 363.691C444.448 363.691 454.208 395.959 494.008 386.205C533.808 376.451 558.584 355.44 558.584 355.44C565.683 349.314 573.807 344.489 582.584 341.185C596.848 335.932 590.096 307.413 590.096 307.413L551.8 325.426L526.272 307.413L504.496 314.921L444.424 332.182L444.448 363.691Z" fill="white"/>
<path opacity="0.02" d="M445.6 363.691C445.6 363.691 455.36 395.959 495.16 386.205C534.96 376.451 559.736 355.44 559.736 355.44C566.835 349.314 574.959 344.489 583.736 341.185C598 335.932 591.248 307.413 591.248 307.413L552.952 325.426L527.424 307.413L505.648 314.921L445.6 332.174V363.691Z" fill="black"/>
<path opacity="0.03" d="M644.936 269.14C644.936 269.14 640.432 329.176 619.408 323.171C598.384 317.167 550.328 336.683 550.328 336.683C550.328 336.683 546.576 329.927 534.56 326.929C522.544 323.931 509.76 337.435 509.76 337.435C509.76 337.435 490.24 334.437 471.464 336.683C452.688 338.93 462.456 361.468 462.456 361.468C462.456 361.468 448.936 377.978 428.664 372.725C408.392 367.473 398.624 377.227 398.624 377.227H380.704L382.848 369.719L495.48 325.442L566.816 311.187L635.2 255.629C635.2 255.629 621.136 235.849 629.448 223.16C632.247 221.691 634.922 219.999 637.448 218.099C637.448 218.099 650.968 235.361 659.976 240.614C668.984 245.867 644.936 269.14 644.936 269.14Z" fill="black"/>
<path opacity="0.1" d="M499.376 153.763L498.512 155.058L490.256 186.575V231.603L471.48 255.589L451.96 221.817C451.96 221.817 434.688 197.032 456.464 159.527C459.397 154.506 461.997 149.298 464.248 143.936L464.72 143.761C464.72 143.761 460.968 213.55 461.72 224.807C462.472 236.064 476.736 242.82 476.736 242.82C472.984 227.062 485.744 166.275 485.744 166.275L499.264 147.942C499.264 148.582 499.264 149.229 499.264 149.869C499.264 150.508 499.264 150.948 499.264 151.468C499.26 151.534 499.26 151.601 499.264 151.668C499.328 152.411 499.352 153.091 499.376 153.763Z" fill="black"/>
<path opacity="0.1" d="M498.024 156.929L490.256 186.583V231.611L471.48 255.597L451.96 221.825C451.96 221.825 434.688 197.04 456.464 159.535C458.892 155.369 461.098 151.078 463.072 146.679C462.376 159.983 459.56 214.949 460.216 224.823C460.968 236.08 475.232 242.836 475.232 242.836C471.48 227.078 484.24 166.291 484.24 166.291L497.76 147.958C497.76 148.598 497.76 149.245 497.76 149.885C497.76 150.524 497.76 150.964 497.76 151.484C497.756 151.55 497.756 151.617 497.76 151.684C497.76 153.283 497.864 154.882 497.944 156.481C498.008 156.657 498.008 156.793 498.024 156.929Z" fill="black"/>
<path opacity="0.1" d="M439.2 224.104V217.556C439.201 202.473 441.136 187.453 444.96 172.863L447.464 163.317L448.216 149.061L449.76 148.494C453.418 149.448 456.85 151.119 459.856 153.411L446.704 223.36C446.704 223.36 456.968 249.48 460.952 264.215C460.056 263.04 459.472 262.384 459.472 262.384C431.68 236.864 439.2 224.104 439.2 224.104Z" fill="black"/>
<path d="M485 329.168L460.2 332.166L451.568 304.047C457.888 297.883 465.968 293.358 468.456 292.054C475.144 308.532 485 329.168 485 329.168Z" fill="#F0F0F2"/>
<path d="M644.936 267.629C644.936 267.629 640.432 327.665 619.408 321.66C598.384 315.656 550.328 335.172 550.328 335.172C550.328 335.172 546.576 328.416 534.56 325.418C522.544 322.42 509.76 335.924 509.76 335.924C509.76 335.924 490.24 332.926 471.464 335.172C452.688 337.419 462.456 359.957 462.456 359.957C462.456 359.957 448.936 376.467 428.664 371.214C408.392 365.961 398.624 375.716 398.624 375.716H380.624C378.368 353.201 412.912 336.691 412.912 336.691C412.912 336.691 442.2 329.935 445.2 316.432C448.2 302.928 470.728 291.647 470.728 291.647C473.728 276.64 460.968 262.376 460.968 262.376C433.184 236.864 440.696 224.104 440.696 224.104V217.556C440.697 202.473 442.632 187.453 446.456 172.863L448.96 163.317L449.712 149.061L464 143.809C464 143.809 460.248 213.598 461 224.855C461.752 236.112 476 242.868 476 242.868C472.248 227.11 485.008 166.323 485.008 166.323L498.528 147.99C498.528 148.63 498.528 149.277 498.528 149.917C498.528 150.556 498.528 150.996 498.528 151.516C498.524 151.582 498.524 151.649 498.528 151.716C498.528 153.315 498.632 154.914 498.712 156.513C498.712 156.697 498.712 156.873 498.712 157.065C498.712 157.696 498.784 158.328 498.832 158.959C498.832 159.335 498.88 159.703 498.904 160.071C498.904 160.119 498.904 160.159 498.904 160.207C498.963 161.011 499.029 161.811 499.104 162.605C499.101 162.629 499.101 162.653 499.104 162.677C499.168 163.477 499.248 164.276 499.328 165.012L499.416 165.867C499.504 166.731 499.6 167.586 499.72 168.442C499.84 169.297 499.928 170.121 500.048 170.96C500.048 171.088 500.048 171.208 500.104 171.336C500.224 172.439 500.392 173.503 500.592 174.534V174.646C501.541 179.407 503.344 183.957 505.912 188.078L528.44 251.863C528.44 251.863 534.04 254.645 538.4 255.245C540.848 255.581 542.912 255.245 543.456 253.358C544.96 248.105 561.48 246.602 561.48 246.602C561.48 246.602 591.52 227.837 607.288 227.837C623.056 227.837 637.328 216.58 637.328 216.58C637.328 216.58 650.848 233.842 659.856 239.095C668.864 244.347 644.936 267.629 644.936 267.629Z" fill="white"/>
<path opacity="0.02" d="M471.856 284.515C471.856 284.515 488.376 283.012 500.392 280.765C512.408 278.519 538.688 255.98 538.688 255.98" fill="black"/>
<path d="M572.104 650.365H546.568C546.914 649.968 547.283 649.592 547.672 649.237C550.72 646.399 559.776 639.851 570.872 649.237C571.264 649.581 571.68 649.965 572.104 650.365Z" fill="#FFD5D8"/>
<path opacity="0.1" d="M575.36 596.813L555.048 595.718C555.476 593.914 556.029 592.143 556.704 590.417L575.296 590.937C575.288 592.943 575.312 594.958 575.36 596.813Z" fill="black"/>
<path d="M575.36 597.557L555.048 596.461C555.476 594.658 556.029 592.887 556.704 591.161L575.296 591.68C575.288 593.743 575.312 595.71 575.36 597.557Z" fill="#4F4A55"/>
<path opacity="0.1" d="M514.784 47.8189C513.522 46.7123 512.022 45.9108 510.4 45.4764C507.2 44.7408 503.864 46.148 500.552 46.4837C495.992 46.9395 491.504 45.3324 486.952 44.6129C482.4 43.8933 477.152 44.349 474.24 47.8909C471.968 50.6492 471.704 54.6308 469.536 57.4851C467.272 60.4592 463.384 61.6505 459.696 62.2821C456.008 62.9138 452.144 63.1776 448.864 64.9765C446.743 66.1789 444.999 67.9487 443.829 70.0871C442.659 72.2254 442.109 74.6475 442.24 77.0811C442.36 78.7921 442.816 80.4791 442.728 82.19C442.544 85.7799 440.048 88.778 437.68 91.4884C436.032 93.3752 434.288 95.5499 434.48 98.0524C434.664 100.963 437.304 103.041 438.624 105.64C440.664 109.637 439.344 114.57 437.432 118.664C435.52 122.757 433.008 126.747 432.632 131.256C432.56 133.548 432.778 135.839 433.28 138.076C433.72 140.523 434.52 143.401 436.88 144.192C437.68 144.464 438.688 144.48 439.224 145.152C439.566 145.726 439.696 146.402 439.592 147.063C439.44 151.86 440.608 157.232 444.528 160.055C445.665 160.841 446.925 161.432 448.256 161.806C450.242 162.444 452.338 162.668 454.415 162.465C456.491 162.261 458.504 161.634 460.328 160.622C463.904 158.496 466.336 154.354 465.928 150.229C465.752 148.422 465.072 146.695 464.792 144.896C464.512 143.097 464.736 141.058 466.056 139.811C466.844 139.204 467.685 138.669 468.568 138.212C471.704 136.157 472.568 131.816 471.928 128.138C471.288 124.46 469.448 121.078 468.256 117.529C466.712 112.939 466.248 108.07 465.856 103.249C465.536 99.3476 465.256 95.39 465.968 91.5443C466.069 90.7789 466.343 90.0463 466.768 89.4017C467.413 88.6563 468.265 88.1192 469.216 87.8586C473.488 86.3635 478.16 86.5314 482.592 85.596C487.024 84.6605 491.664 82.0701 492.728 77.6728C493.528 74.2109 492.168 69.9095 494.728 67.423C496.952 65.2643 500.648 66.1118 503.456 67.423C506.4 68.7938 509.169 70.5117 511.704 72.5399C514.336 74.6426 517.88 77.4889 521.136 74.8825C523.464 73.0196 524.264 69.4938 523.664 66.7274C522.24 60.1634 520.136 52.2003 514.784 47.8189Z" fill="black"/>
<path d="M514.032 47.0674C512.756 45.9543 511.239 45.1524 509.6 44.7248C506.4 43.9892 503.064 45.3964 499.752 45.7322C495.192 46.1879 490.704 44.5809 486.152 43.8613C481.6 43.1418 476.352 43.5975 473.44 47.1393C471.168 49.8977 470.904 53.8792 468.736 56.7335C466.472 59.7077 462.584 60.899 458.896 61.5306C455.208 62.1622 451.344 62.426 448.064 64.2249C445.943 65.4274 444.199 67.1972 443.029 69.3355C441.859 71.4738 441.309 73.8959 441.44 76.3296C441.56 78.0405 442.016 79.7275 441.928 81.4385C441.744 85.0283 439.248 88.0265 436.88 90.7368C435.232 92.6237 433.488 94.7984 433.68 97.3008C433.864 100.211 436.504 102.29 437.824 104.888C439.864 108.886 438.544 113.819 436.632 117.912C434.72 122.006 432.208 125.995 431.832 130.505C431.76 132.796 431.978 135.088 432.48 137.325C432.92 139.771 433.72 142.649 436.08 143.441C436.88 143.713 437.888 143.729 438.424 144.4C438.766 144.975 438.896 145.651 438.792 146.311C438.64 151.108 439.808 156.481 443.728 159.303C444.865 160.089 446.125 160.681 447.456 161.054C449.442 161.692 451.538 161.917 453.615 161.713C455.691 161.509 457.704 160.882 459.528 159.871C463.104 157.744 465.536 153.603 465.128 149.477C464.952 147.67 464.272 145.943 463.992 144.144C463.712 142.345 463.936 140.307 465.256 139.059C466.044 138.452 466.885 137.917 467.768 137.46C470.904 135.406 471.768 131.064 471.128 127.387C470.488 123.709 468.648 120.327 467.456 116.777C465.912 112.188 465.448 107.319 465.056 102.498C464.736 98.5961 464.456 94.6384 465.168 90.7928C465.269 90.0273 465.543 89.2947 465.968 88.6501C466.613 87.9047 467.465 87.3676 468.416 87.107C472.688 85.6119 477.36 85.7798 481.792 84.8444C486.224 83.909 490.896 81.2546 492 76.8733C492.8 73.4114 491.44 69.11 494 66.6235C496.224 64.4648 499.92 65.3123 502.728 66.6235C505.672 67.9943 508.441 69.7121 510.976 71.7404C513.608 73.8431 517.152 76.6894 520.408 74.0829C522.736 72.2201 523.536 68.6942 522.936 65.9279C521.488 59.4119 519.384 51.4487 514.032 47.0674Z" fill="#FFCD50"/>
<path d="M498.568 151.74C498.568 153.339 498.672 154.938 498.752 156.537C498.664 154.93 498.6 153.331 498.568 151.74Z" fill="#FFD5D8"/>
<path d="M546.568 321.668L518.032 325.418C518.032 325.418 516.528 290.144 512.024 280.39L513.4 222.609C513.481 219.147 512.835 215.707 511.504 212.511C507.216 202.221 506.016 188.094 506.016 188.094L528.544 251.879C528.544 251.879 534.144 254.661 538.504 255.261C537.464 260.674 536.456 268.853 538.312 274.393C541.312 283.396 546.568 321.668 546.568 321.668Z" fill="#FFD5D8"/>
<path d="M506.024 137.804L485 166.323L506.024 187.334L509.776 144.56L506.024 137.804Z" fill="white"/>
<path opacity="0.05" d="M501.896 322.036C501.896 322.036 521.416 307.029 536.064 313.409C550.712 319.79 565.728 314.537 565.728 314.537L559.712 324.307L519.2 325.794L501.896 322.036Z" fill="black"/>
<path d="M501.896 322.788C501.896 322.788 521.416 307.781 536.064 314.161C550.712 320.541 565.728 315.288 565.728 315.288L559.72 325.042L519.2 326.545L501.896 322.788Z" fill="white"/>
<path d="M450.272 299.786L460.592 332.542L483.224 325.418L467.824 290.431L450.272 299.786Z" fill="#FFD5D8"/>
<path opacity="0.05" d="M451.584 331.798C451.584 331.798 462.096 316.04 468.856 318.286C475.616 320.533 490.944 318.063 490.944 318.063L487.624 329.544L470.352 331.798L454.584 337.051L451.584 331.798Z" fill="black"/>
<path d="M451.584 332.55C451.584 332.55 462.096 316.791 468.856 319.038C475.616 321.285 490.944 318.814 490.944 318.814L487.624 330.295L470.352 332.55L454.584 337.803L451.584 332.55Z" fill="white"/>
<path opacity="0.05" d="M591.44 308.42C591.44 308.42 613.04 313.034 626.544 298.778C640.048 284.523 635.552 271.763 643.064 264.255C650.576 256.748 658.08 250 656.584 243.996" stroke="black" stroke-width="2" stroke-miterlimit="10"/>
<path opacity="0.1" d="M572.104 650.365H546.568C546.914 649.968 547.283 649.592 547.672 649.237H570.872C571.264 649.581 571.68 649.965 572.104 650.365Z" fill="black"/>
<path opacity="0.5" d="M232.472 197.632C222.24 202.981 217.872 214.829 217.872 214.829C217.872 214.829 230.096 218.027 240.328 212.647C250.56 207.266 254.928 195.449 254.928 195.449C254.928 195.449 242.704 192.283 232.472 197.632Z" fill="#00796B"/>
<path opacity="0.5" d="M307.36 343.895C299.256 352.114 298.72 364.73 298.72 364.73C298.72 364.73 311.328 364.011 319.432 355.792C327.536 347.573 328.072 334.956 328.072 334.956C328.072 334.956 315.464 335.668 307.36 343.895Z" fill="#00796B"/>
<path opacity="0.5" d="M244.616 396.263C233.184 397.862 225.112 407.608 225.112 407.608C225.112 407.608 235.576 414.676 247.008 413.037C258.44 411.398 266.512 401.692 266.512 401.692C266.512 401.692 256.048 394.6 244.616 396.263Z" fill="#00796B"/>
<path opacity="0.5" d="M339.648 53.4635C331.544 61.6825 331.008 74.2988 331.008 74.2988C331.008 74.2988 343.616 73.5793 351.72 65.3603C359.824 57.1413 360.36 44.5249 360.36 44.5249C360.36 44.5249 347.752 45.2765 339.648 53.4635Z" fill="#00796B"/>
<path opacity="0.5" d="M581.44 115.002C573.336 123.221 572.8 135.837 572.8 135.837C572.8 135.837 585.408 135.118 593.512 126.899C601.616 118.68 602.152 106.04 602.152 106.04C602.152 106.04 589.544 106.783 581.44 115.002Z" fill="#00796B"/>
<path opacity="0.5" d="M161.68 341.64C153.576 349.859 153.04 362.476 153.04 362.476C153.04 362.476 165.648 361.756 173.752 353.537C181.856 345.318 182.4 332.702 182.4 332.702C182.4 332.702 169.792 333.421 161.68 341.64Z" fill="#00796B"/>
<path opacity="0.5" d="M108.624 229.628C98.392 234.977 94.024 246.826 94.024 246.826C94.024 246.826 106.248 250.024 116.48 244.643C126.712 239.263 131.08 227.446 131.08 227.446C131.08 227.446 118.864 224.272 108.624 229.628Z" fill="#00796B"/>
<path opacity="0.5" d="M357.176 236.36C346.944 241.709 342.576 253.558 342.576 253.558C342.576 253.558 354.8 256.756 365.032 251.375C375.264 245.994 379.632 234.178 379.632 234.178C379.632 234.178 367.408 231.028 357.176 236.36Z" fill="#00796B"/>
<path d="M136.152 526.176C136.152 526.176 142.448 534.403 133.248 546.819C124.048 559.236 116.448 569.718 119.536 577.457C119.536 577.457 133.416 554.399 144.704 554.071C155.992 553.743 148.576 540.048 136.152 526.176Z" fill="#00796B"/>
<path opacity="0.1" d="M136.152 526.176C136.702 526.971 137.135 527.841 137.44 528.758C148.464 541.695 154.328 553.775 143.736 554.079C133.872 554.359 122.032 571.996 119.2 576.465C119.293 576.81 119.405 577.149 119.536 577.481C119.536 577.481 133.416 554.423 144.704 554.095C155.992 553.767 148.576 540.048 136.152 526.176Z" fill="black"/>
<path d="M147.848 536.658C147.848 539.552 147.52 541.895 147.12 541.895C146.72 541.895 146.392 539.552 146.392 536.658C146.392 533.763 146.8 535.123 147.192 535.123C147.584 535.123 147.848 533.779 147.848 536.658Z" fill="#FFD037"/>
<path d="M151.864 540.112C149.32 541.495 147.064 542.334 146.912 541.982C146.76 541.631 148.624 540.224 151.168 538.84C153.712 537.457 152.712 538.465 152.904 538.84C153.096 539.216 154.4 538.728 151.864 540.112Z" fill="#FFD037"/>
<path d="M102.912 526.176C102.912 526.176 96.616 534.403 105.816 546.819C115.016 559.236 122.616 569.718 119.528 577.457C119.528 577.457 105.648 554.399 94.36 554.071C83.072 553.743 90.488 540.048 102.912 526.176Z" fill="#00796B"/>
<path opacity="0.1" d="M102.912 526.176C102.362 526.971 101.929 527.841 101.624 528.758C90.6 541.695 84.736 553.775 95.328 554.079C105.192 554.359 117.032 571.996 119.864 576.465C119.771 576.81 119.659 577.149 119.528 577.481C119.528 577.481 105.648 554.423 94.36 554.095C83.072 553.767 90.488 540.048 102.912 526.176Z" fill="black"/>
<path d="M91.2 536.658C91.2 539.552 91.528 541.895 91.928 541.895C92.328 541.895 92.656 539.552 92.656 536.658C92.656 533.763 92.248 535.123 91.856 535.123C91.464 535.123 91.2 533.779 91.2 536.658Z" fill="#FFD037"/>
<path d="M87.2 540.112C89.744 541.495 92 542.334 92.152 541.982C92.304 541.631 90.44 540.224 87.896 538.84C85.352 537.457 86.352 538.465 86.16 538.84C85.968 539.216 84.656 538.728 87.2 540.112Z" fill="#FFD037"/>
<path d="M93.216 576.378C93.216 576.378 110.816 575.834 116.112 572.06C121.408 568.286 143.176 563.777 144.488 569.83C145.8 575.882 170.928 599.931 151.064 600.091C131.2 600.251 104.912 596.997 99.616 593.775C94.32 590.553 93.216 576.378 93.216 576.378Z" fill="#A8A8A8"/>
<path opacity="0.2" d="M151.424 597.988C131.56 598.148 105.272 594.894 99.976 591.672C95.976 589.218 94.376 580.415 93.8 576.354H93.216C93.216 576.354 94.328 590.537 99.616 593.759C104.904 596.981 131.2 600.235 151.064 600.075C156.8 600.027 158.776 597.988 158.672 594.974C157.88 596.813 155.688 597.956 151.424 597.988Z" fill="black"/>
</g>
<defs>
<linearGradient id="paint0_linear_101_4" x1="518.416" y1="661.246" x2="518.416" y2="38.3687" gradientUnits="userSpaceOnUse">
<stop stop-color="#808080" stop-opacity="0.25"/>
<stop offset="0.54" stop-color="#808080" stop-opacity="0.12"/>
<stop offset="1" stop-color="#808080" stop-opacity="0.1"/>
</linearGradient>
<clipPath id="clip0_101_4">
<rect width="768" height="671" fill="white"/>
</clipPath>
</defs>
</svg>
